<svg xmlns="http://www.w3.org/2000/svg" viewBox="0 0 1920 1080" preserveAspectRatio="xMidYMid slice">
  <defs>
    <linearGradient id="csky" x1="0" y1="0" x2="0" y2="1">
      <stop offset="0" stop-color="#0a1c1c"/>
      <stop offset="0.55" stop-color="#1d3936"/>
      <stop offset="0.85" stop-color="#54736a"/>
      <stop offset="1" stop-color="#7d988a"/>
    </linearGradient>
    <radialGradient id="cglow" cx="0.5" cy="0.72" r="0.6">
      <stop offset="0" stop-color="#e9efd6" stop-opacity="0.5"/>
      <stop offset="1" stop-color="#e9efd6" stop-opacity="0"/>
    </radialGradient>
    <radialGradient id="cvig" cx="0.5" cy="0.45" r="0.9">
      <stop offset="0" stop-color="#04110f" stop-opacity="0"/>
      <stop offset="0.7" stop-color="#04110f" stop-opacity="0"/>
      <stop offset="1" stop-color="#04110f" stop-opacity="0.5"/>
    </radialGradient>
    <filter id="csoft" x="-20%" y="-20%" width="140%" height="140%"><feGaussianBlur stdDeviation="5"/></filter>
    <filter id="cmid" x="-20%" y="-20%" width="140%" height="140%"><feGaussianBlur stdDeviation="1.6"/></filter>
    <filter id="chaze" x="-20%" y="-20%" width="140%" height="140%"><feGaussianBlur stdDeviation="26"/></filter>
    <filter id="cgrain">
      <feTurbulence type="fractalNoise" baseFrequency="0.9" numOctaves="2" stitchTiles="stitch"/>
      <feColorMatrix type="matrix" values="0 0 0 0 1  0 0 0 0 1  0 0 0 0 1  0 0 0 0.045 0"/>
    </filter>
  </defs>

  <rect width="1920" height="1080" fill="url(#csky)"/>
  <circle cx="419" cy="287" r="1.6" fill="#e8f1e6" opacity="0.48"/>
  <circle cx="696" cy="79" r="1.2" fill="#e8f1e6" opacity="0.40"/>
  <circle cx="297" cy="289" r="0.8" fill="#e8f1e6" opacity="0.19"/>
  <circle cx="403" cy="54" r="0.9" fill="#e8f1e6" opacity="0.15"/>
  <circle cx="1820" cy="179" r="1.6" fill="#e8f1e6" opacity="0.12"/>
  <circle cx="254" cy="24" r="1.4" fill="#e8f1e6" opacity="0.31"/>
  <circle cx="653" cy="174" r="1.4" fill="#e8f1e6" opacity="0.20"/>
  <circle cx="1339" cy="115" r="1.2" fill="#e8f1e6" opacity="0.44"/>
  <circle cx="874" cy="85" r="0.8" fill="#e8f1e6" opacity="0.26"/>
  <circle cx="448" cy="181" r="0.7" fill="#e8f1e6" opacity="0.12"/>
  <circle cx="23" cy="169" r="1.4" fill="#e8f1e6" opacity="0.45"/>
  <circle cx="382" cy="47" r="1.6" fill="#e8f1e6" opacity="0.21"/>
  <circle cx="670" cy="306" r="1.4" fill="#e8f1e6" opacity="0.19"/>
  <circle cx="702" cy="249" r="1.6" fill="#e8f1e6" opacity="0.30"/>
  <circle cx="504" cy="274" r="1.1" fill="#e8f1e6" opacity="0.32"/>
  <circle cx="1557" cy="141" r="1.1" fill="#e8f1e6" opacity="0.51"/>
  <circle cx="1261" cy="197" r="1.6" fill="#e8f1e6" opacity="0.46"/>
  <circle cx="1394" cy="224" r="1.4" fill="#e8f1e6" opacity="0.24"/>
  <circle cx="15" cy="248" r="1.4" fill="#e8f1e6" opacity="0.25"/>
  <circle cx="65" cy="297" r="1.1" fill="#e8f1e6" opacity="0.49"/>
  <circle cx="1225" cy="200" r="1.7" fill="#e8f1e6" opacity="0.31"/>
  <circle cx="1577" cy="267" r="1.1" fill="#e8f1e6" opacity="0.47"/>
  <circle cx="1543" cy="96" r="1.1" fill="#e8f1e6" opacity="0.46"/>
  <circle cx="1121" cy="203" r="1.1" fill="#e8f1e6" opacity="0.44"/>
  <circle cx="1144" cy="157" r="1.2" fill="#e8f1e6" opacity="0.30"/>
  <circle cx="538" cy="254" r="0.9" fill="#e8f1e6" opacity="0.53"/>
  <circle cx="1255" cy="242" r="0.8" fill="#e8f1e6" opacity="0.13"/>
  <circle cx="393" cy="123" r="1.5" fill="#e8f1e6" opacity="0.13"/>
  <circle cx="1324" cy="109" r="1.6" fill="#e8f1e6" opacity="0.20"/>
  <circle cx="1278" cy="263" r="1.3" fill="#e8f1e6" opacity="0.27"/>
  <circle cx="1587" cy="154" r="1.7" fill="#e8f1e6" opacity="0.45"/>
  <circle cx="925" cy="147" r="1.1" fill="#e8f1e6" opacity="0.48"/>
  <circle cx="1437" cy="157" r="1.4" fill="#e8f1e6" opacity="0.24"/>
  <circle cx="553" cy="127" r="0.8" fill="#e8f1e6" opacity="0.34"/>
  <circle cx="1275" cy="66" r="1.6" fill="#e8f1e6" opacity="0.31"/>
  <circle cx="1255" cy="51" r="0.7" fill="#e8f1e6" opacity="0.24"/>
  <circle cx="157" cy="328" r="1.3" fill="#e8f1e6" opacity="0.36"/>
  <circle cx="32" cy="230" r="1.6" fill="#e8f1e6" opacity="0.46"/>
  <circle cx="763" cy="229" r="1.4" fill="#e8f1e6" opacity="0.24"/>
  <circle cx="816" cy="94" r="1.1" fill="#e8f1e6" opacity="0.24"/>
  <circle cx="565" cy="127" r="0.9" fill="#e8f1e6" opacity="0.18"/>
  <circle cx="181" cy="130" r="0.8" fill="#e8f1e6" opacity="0.33"/>
  <circle cx="1837" cy="145" r="1.2" fill="#e8f1e6" opacity="0.27"/>
  <circle cx="1493" cy="263" r="0.9" fill="#e8f1e6" opacity="0.44"/>
  <circle cx="183" cy="265" r="1.5" fill="#e8f1e6" opacity="0.34"/>
  <circle cx="1818" cy="283" r="1.6" fill="#e8f1e6" opacity="0.51"/>
  <rect width="1920" height="1080" fill="url(#cglow)"/>
  <g fill="#3c5a53" filter="url(#csoft)" opacity="0.8">
    <rect x="-50" y="531" width="96" height="269"/>
    <rect x="65" y="493" width="90" height="307"/>
    <rect x="89" y="472" width="44" height="30"/>
    <rect x="166" y="580" width="68" height="220"/>
    <rect x="180" y="566" width="41" height="30"/>
    <rect x="237" y="645" width="50" height="155"/>
    <rect x="302" y="591" width="65" height="209"/>
    <rect x="374" y="593" width="43" height="207"/>
    <rect x="430" y="639" width="67" height="161"/>
    <rect x="446" y="615" width="35" height="30"/>
    <rect x="526" y="655" width="87" height="145"/>
    <rect x="636" y="536" width="54" height="264"/>
    <rect x="694" y="514" width="93" height="286"/>
    <rect x="802" y="645" width="84" height="155"/>
    <rect x="825" y="630" width="39" height="30"/>
    <rect x="895" y="522" width="87" height="278"/>
    <rect x="918" y="507" width="42" height="30"/>
    <rect x="985" y="550" width="79" height="250"/>
    <rect x="1009" y="526" width="31" height="30"/>
    <rect x="1092" y="573" width="38" height="227"/>
    <rect x="1141" y="653" width="80" height="147"/>
    <rect x="1164" y="631" width="34" height="30"/>
    <rect x="1180" y="615" width="3" height="50"/>
    <rect x="1244" y="622" width="86" height="178"/>
    <rect x="1267" y="600" width="39" height="30"/>
    <rect x="1347" y="591" width="66" height="209"/>
    <rect x="1368" y="569" width="25" height="30"/>
    <rect x="1416" y="532" width="56" height="268"/>
    <rect x="1482" y="626" width="38" height="174"/>
    <rect x="1492" y="610" width="18" height="30"/>
    <rect x="1500" y="585" width="3" height="50"/>
    <rect x="1537" y="525" width="47" height="275"/>
    <rect x="1609" y="562" width="55" height="238"/>
    <rect x="1625" y="549" width="23" height="30"/>
    <rect x="1676" y="558" width="82" height="242"/>
    <rect x="1781" y="625" width="75" height="175"/>
    <rect x="1858" y="657" width="63" height="143"/>
    <rect x="1926" y="558" width="58" height="242"/>
    <rect x="1953" y="520" width="3" height="50"/>
  </g>
  <rect x="-100" y="640" width="2120" height="160" fill="#c9d8c6" opacity="0.2" filter="url(#chaze)"/>
  <g filter="url(#cmid)">
    <g fill="#1c3833">
    <rect x="-50" y="628" width="81" height="332"/>
    <rect x="-11" y="597" width="3" height="50"/>
    <rect x="39" y="516" width="62" height="444"/>
    <rect x="55" y="503" width="30" height="30"/>
    <rect x="113" y="760" width="89" height="200"/>
    <rect x="155" y="719" width="3" height="50"/>
    <rect x="208" y="672" width="79" height="288"/>
    <rect x="298" y="637" width="87" height="323"/>
    <rect x="325" y="612" width="33" height="30"/>
    <rect x="402" y="732" width="51" height="228"/>
    <rect x="473" y="626" width="90" height="334"/>
    <rect x="494" y="605" width="49" height="30"/>
    <rect x="572" y="759" width="125" height="201"/>
    <rect x="726" y="754" width="95" height="206"/>
    <rect x="836" y="619" width="79" height="341"/>
    <rect x="854" y="600" width="44" height="30"/>
    <rect x="874" y="590" width="3" height="50"/>
    <rect x="942" y="621" width="124" height="339"/>
    <rect x="1073" y="551" width="54" height="409"/>
    <rect x="1150" y="680" width="52" height="280"/>
    <rect x="1209" y="545" width="110" height="415"/>
    <rect x="1325" y="580" width="70" height="380"/>
    <rect x="1399" y="748" width="50" height="212"/>
    <rect x="1469" y="516" width="89" height="444"/>
    <rect x="1586" y="579" width="121" height="381"/>
    <rect x="1645" y="540" width="3" height="50"/>
    <rect x="1709" y="668" width="114" height="292"/>
    <rect x="1765" y="639" width="3" height="50"/>
    <rect x="1826" y="579" width="96" height="381"/>
    <rect x="1929" y="559" width="117" height="401"/>
    </g>
    <g>
    <rect x="-43" y="782" width="6" height="9" fill="#e8dba6" opacity="0.36"/>
    <rect x="8" y="806" width="6" height="9" fill="#e8dba6" opacity="0.43"/>
    <rect x="46" y="598" width="6" height="9" fill="#e8dba6" opacity="0.35"/>
    <rect x="63" y="598" width="6" height="9" fill="#e8dba6" opacity="0.34"/>
    <rect x="63" y="766" width="6" height="9" fill="#e8dba6" opacity="0.27"/>
    <rect x="80" y="550" width="6" height="9" fill="#e8dba6" opacity="0.39"/>
    <rect x="80" y="670" width="6" height="9" fill="#e8dba6" opacity="0.19"/>
    <rect x="266" y="730" width="6" height="9" fill="#e8dba6" opacity="0.27"/>
    <rect x="266" y="754" width="6" height="9" fill="#e8dba6" opacity="0.41"/>
    <rect x="305" y="839" width="6" height="9" fill="#e8dba6" opacity="0.27"/>
    <rect x="322" y="647" width="6" height="9" fill="#e8dba6" opacity="0.18"/>
    <rect x="339" y="719" width="6" height="9" fill="#e8dba6" opacity="0.51"/>
    <rect x="339" y="767" width="6" height="9" fill="#e8dba6" opacity="0.22"/>
    <rect x="356" y="671" width="6" height="9" fill="#e8dba6" opacity="0.58"/>
    <rect x="373" y="719" width="6" height="9" fill="#e8dba6" opacity="0.56"/>
    <rect x="409" y="814" width="6" height="9" fill="#e8dba6" opacity="0.19"/>
    <rect x="497" y="732" width="6" height="9" fill="#e8dba6" opacity="0.57"/>
    <rect x="497" y="852" width="6" height="9" fill="#e8dba6" opacity="0.39"/>
    <rect x="548" y="780" width="6" height="9" fill="#e8dba6" opacity="0.58"/>
    <rect x="548" y="828" width="6" height="9" fill="#e8dba6" opacity="0.43"/>
    <rect x="630" y="769" width="6" height="9" fill="#e8dba6" opacity="0.52"/>
    <rect x="767" y="764" width="6" height="9" fill="#e8dba6" opacity="0.43"/>
    <rect x="877" y="725" width="6" height="9" fill="#e8dba6" opacity="0.48"/>
    <rect x="877" y="821" width="6" height="9" fill="#e8dba6" opacity="0.35"/>
    <rect x="894" y="677" width="6" height="9" fill="#e8dba6" opacity="0.44"/>
    <rect x="983" y="823" width="6" height="9" fill="#e8dba6" opacity="0.48"/>
    <rect x="1017" y="823" width="6" height="9" fill="#e8dba6" opacity="0.19"/>
    <rect x="1051" y="775" width="6" height="9" fill="#e8dba6" opacity="0.49"/>
    <rect x="1097" y="585" width="6" height="9" fill="#e8dba6" opacity="0.30"/>
    <rect x="1114" y="849" width="6" height="9" fill="#e8dba6" opacity="0.41"/>
    <rect x="1174" y="810" width="6" height="9" fill="#e8dba6" opacity="0.27"/>
    <rect x="1191" y="738" width="6" height="9" fill="#e8dba6" opacity="0.41"/>
    <rect x="1250" y="603" width="6" height="9" fill="#e8dba6" opacity="0.47"/>
    <rect x="1250" y="651" width="6" height="9" fill="#e8dba6" opacity="0.45"/>
    <rect x="1284" y="843" width="6" height="9" fill="#e8dba6" opacity="0.22"/>
    <rect x="1349" y="710" width="6" height="9" fill="#e8dba6" opacity="0.19"/>
    <rect x="1349" y="854" width="6" height="9" fill="#e8dba6" opacity="0.26"/>
    <rect x="1366" y="806" width="6" height="9" fill="#e8dba6" opacity="0.45"/>
    <rect x="1423" y="830" width="6" height="9" fill="#e8dba6" opacity="0.45"/>
    <rect x="1493" y="790" width="6" height="9" fill="#e8dba6" opacity="0.24"/>
    <rect x="1527" y="766" width="6" height="9" fill="#e8dba6" opacity="0.19"/>
    <rect x="1610" y="805" width="6" height="9" fill="#e8dba6" opacity="0.22"/>
    <rect x="1627" y="613" width="6" height="9" fill="#e8dba6" opacity="0.56"/>
    <rect x="1627" y="685" width="6" height="9" fill="#e8dba6" opacity="0.49"/>
    <rect x="1644" y="709" width="6" height="9" fill="#e8dba6" opacity="0.41"/>
    <rect x="1678" y="661" width="6" height="9" fill="#e8dba6" opacity="0.40"/>
    <rect x="1678" y="757" width="6" height="9" fill="#e8dba6" opacity="0.25"/>
    <rect x="1678" y="805" width="6" height="9" fill="#e8dba6" opacity="0.35"/>
    <rect x="1695" y="637" width="6" height="9" fill="#e8dba6" opacity="0.36"/>
    <rect x="1695" y="661" width="6" height="9" fill="#e8dba6" opacity="0.56"/>
    <rect x="1716" y="702" width="6" height="9" fill="#e8dba6" opacity="0.37"/>
    <rect x="1750" y="798" width="6" height="9" fill="#e8dba6" opacity="0.44"/>
    <rect x="1767" y="822" width="6" height="9" fill="#e8dba6" opacity="0.46"/>
    <rect x="1784" y="702" width="6" height="9" fill="#e8dba6" opacity="0.28"/>
    <rect x="1801" y="678" width="6" height="9" fill="#e8dba6" opacity="0.43"/>
    <rect x="1867" y="613" width="6" height="9" fill="#e8dba6" opacity="0.26"/>
    <rect x="1867" y="805" width="6" height="9" fill="#e8dba6" opacity="0.49"/>
    <rect x="1884" y="613" width="6" height="9" fill="#e8dba6" opacity="0.42"/>
    <rect x="1884" y="661" width="6" height="9" fill="#e8dba6" opacity="0.59"/>
    <rect x="1936" y="665" width="6" height="9" fill="#e8dba6" opacity="0.35"/>
    <rect x="1936" y="809" width="6" height="9" fill="#e8dba6" opacity="0.25"/>
    <rect x="1936" y="857" width="6" height="9" fill="#e8dba6" opacity="0.35"/>
    <rect x="1970" y="617" width="6" height="9" fill="#e8dba6" opacity="0.55"/>
    <rect x="2021" y="665" width="6" height="9" fill="#e8dba6" opacity="0.20"/>
    </g>
  </g>
  <rect x="-100" y="810" width="2120" height="140" fill="#bccbba" opacity="0.16" filter="url(#chaze)"/>
  <g fill="#0a1e1f">
    <rect x="-50" y="805" width="126" height="385"/>
    <rect x="-19" y="781" width="64" height="30"/>
    <rect x="11" y="771" width="3" height="50"/>
    <rect x="84" y="866" width="169" height="324"/>
    <rect x="275" y="806" width="86" height="384"/>
    <rect x="295" y="783" width="47" height="30"/>
    <rect x="376" y="692" width="141" height="498"/>
    <rect x="537" y="734" width="82" height="456"/>
    <rect x="577" y="707" width="3" height="50"/>
    <rect x="625" y="796" width="101" height="394"/>
    <rect x="650" y="772" width="50" height="30"/>
    <rect x="673" y="766" width="3" height="50"/>
    <rect x="739" y="690" width="106" height="500"/>
    <rect x="859" y="849" width="128" height="341"/>
    <rect x="1001" y="663" width="151" height="527"/>
    <rect x="1165" y="688" width="105" height="502"/>
    <rect x="1216" y="647" width="3" height="50"/>
    <rect x="1299" y="712" width="166" height="478"/>
    <rect x="1349" y="700" width="66" height="30"/>
    <rect x="1380" y="690" width="3" height="50"/>
    <rect x="1478" y="660" width="97" height="530"/>
    <rect x="1509" y="636" width="35" height="30"/>
    <rect x="1596" y="584" width="144" height="606"/>
    <rect x="1748" y="779" width="84" height="411"/>
    <rect x="1849" y="707" width="152" height="483"/>
  </g>
  <g>
    <rect x="-43" y="911" width="6" height="9" fill="#e8dba6" opacity="0.49"/>
    <rect x="-43" y="1079" width="6" height="9" fill="#e8dba6" opacity="0.24"/>
    <rect x="-26" y="839" width="6" height="9" fill="#e8dba6" opacity="0.37"/>
    <rect x="-26" y="1007" width="6" height="9" fill="#e8dba6" opacity="0.45"/>
    <rect x="-9" y="1079" width="6" height="9" fill="#e8dba6" opacity="0.29"/>
    <rect x="8" y="1031" width="6" height="9" fill="#e8dba6" opacity="0.55"/>
    <rect x="25" y="1031" width="6" height="9" fill="#e8dba6" opacity="0.20"/>
    <rect x="108" y="948" width="6" height="9" fill="#e8dba6" opacity="0.29"/>
    <rect x="108" y="1044" width="6" height="9" fill="#e8dba6" opacity="0.29"/>
    <rect x="125" y="1044" width="6" height="9" fill="#e8dba6" opacity="0.56"/>
    <rect x="142" y="924" width="6" height="9" fill="#e8dba6" opacity="0.25"/>
    <rect x="176" y="876" width="6" height="9" fill="#e8dba6" opacity="0.41"/>
    <rect x="176" y="1020" width="6" height="9" fill="#e8dba6" opacity="0.50"/>
    <rect x="193" y="1044" width="6" height="9" fill="#e8dba6" opacity="0.33"/>
    <rect x="210" y="876" width="6" height="9" fill="#e8dba6" opacity="0.19"/>
    <rect x="210" y="924" width="6" height="9" fill="#e8dba6" opacity="0.56"/>
    <rect x="299" y="1008" width="6" height="9" fill="#e8dba6" opacity="0.29"/>
    <rect x="333" y="816" width="6" height="9" fill="#e8dba6" opacity="0.59"/>
    <rect x="333" y="888" width="6" height="9" fill="#e8dba6" opacity="0.29"/>
    <rect x="333" y="1008" width="6" height="9" fill="#e8dba6" opacity="0.25"/>
    <rect x="383" y="918" width="6" height="9" fill="#e8dba6" opacity="0.57"/>
    <rect x="434" y="798" width="6" height="9" fill="#e8dba6" opacity="0.35"/>
    <rect x="451" y="942" width="6" height="9" fill="#e8dba6" opacity="0.47"/>
    <rect x="451" y="1038" width="6" height="9" fill="#e8dba6" opacity="0.53"/>
    <rect x="485" y="918" width="6" height="9" fill="#e8dba6" opacity="0.48"/>
    <rect x="485" y="966" width="6" height="9" fill="#e8dba6" opacity="0.41"/>
    <rect x="485" y="1014" width="6" height="9" fill="#e8dba6" opacity="0.31"/>
    <rect x="561" y="744" width="6" height="9" fill="#e8dba6" opacity="0.45"/>
    <rect x="561" y="1008" width="6" height="9" fill="#e8dba6" opacity="0.34"/>
    <rect x="561" y="1080" width="6" height="9" fill="#e8dba6" opacity="0.23"/>
    <rect x="578" y="816" width="6" height="9" fill="#e8dba6" opacity="0.28"/>
    <rect x="595" y="984" width="6" height="9" fill="#e8dba6" opacity="0.29"/>
    <rect x="632" y="998" width="6" height="9" fill="#e8dba6" opacity="0.56"/>
    <rect x="632" y="1046" width="6" height="9" fill="#e8dba6" opacity="0.51"/>
    <rect x="632" y="1070" width="6" height="9" fill="#e8dba6" opacity="0.43"/>
    <rect x="683" y="854" width="6" height="9" fill="#e8dba6" opacity="0.43"/>
    <rect x="746" y="748" width="6" height="9" fill="#e8dba6" opacity="0.21"/>
    <rect x="746" y="844" width="6" height="9" fill="#e8dba6" opacity="0.39"/>
    <rect x="763" y="724" width="6" height="9" fill="#e8dba6" opacity="0.37"/>
    <rect x="763" y="844" width="6" height="9" fill="#e8dba6" opacity="0.42"/>
    <rect x="763" y="868" width="6" height="9" fill="#e8dba6" opacity="0.55"/>
    <rect x="763" y="1012" width="6" height="9" fill="#e8dba6" opacity="0.21"/>
    <rect x="780" y="964" width="6" height="9" fill="#e8dba6" opacity="0.44"/>
    <rect x="797" y="916" width="6" height="9" fill="#e8dba6" opacity="0.27"/>
    <rect x="831" y="748" width="6" height="9" fill="#e8dba6" opacity="0.38"/>
    <rect x="831" y="1060" width="6" height="9" fill="#e8dba6" opacity="0.22"/>
    <rect x="900" y="1003" width="6" height="9" fill="#e8dba6" opacity="0.55"/>
    <rect x="917" y="955" width="6" height="9" fill="#e8dba6" opacity="0.53"/>
    <rect x="934" y="1051" width="6" height="9" fill="#e8dba6" opacity="0.19"/>
    <rect x="951" y="955" width="6" height="9" fill="#e8dba6" opacity="0.34"/>
    <rect x="1025" y="769" width="6" height="9" fill="#e8dba6" opacity="0.33"/>
    <rect x="1025" y="985" width="6" height="9" fill="#e8dba6" opacity="0.35"/>
    <rect x="1025" y="1033" width="6" height="9" fill="#e8dba6" opacity="0.30"/>
    <rect x="1042" y="769" width="6" height="9" fill="#e8dba6" opacity="0.49"/>
    <rect x="1042" y="817" width="6" height="9" fill="#e8dba6" opacity="0.27"/>
    <rect x="1059" y="673" width="6" height="9" fill="#e8dba6" opacity="0.50"/>
    <rect x="1059" y="769" width="6" height="9" fill="#e8dba6" opacity="0.47"/>
    <rect x="1059" y="841" width="6" height="9" fill="#e8dba6" opacity="0.58"/>
    <rect x="1059" y="1033" width="6" height="9" fill="#e8dba6" opacity="0.53"/>
    <rect x="1076" y="865" width="6" height="9" fill="#e8dba6" opacity="0.54"/>
    <rect x="1076" y="913" width="6" height="9" fill="#e8dba6" opacity="0.22"/>
    <rect x="1127" y="865" width="6" height="9" fill="#e8dba6" opacity="0.22"/>
    <rect x="1127" y="1057" width="6" height="9" fill="#e8dba6" opacity="0.26"/>
    <rect x="1189" y="962" width="6" height="9" fill="#e8dba6" opacity="0.24"/>
    <rect x="1189" y="986" width="6" height="9" fill="#e8dba6" opacity="0.28"/>
    <rect x="1206" y="746" width="6" height="9" fill="#e8dba6" opacity="0.27"/>
    <rect x="1223" y="938" width="6" height="9" fill="#e8dba6" opacity="0.35"/>
    <rect x="1223" y="1058" width="6" height="9" fill="#e8dba6" opacity="0.51"/>
    <rect x="1240" y="770" width="6" height="9" fill="#e8dba6" opacity="0.57"/>
    <rect x="1257" y="890" width="6" height="9" fill="#e8dba6" opacity="0.29"/>
    <rect x="1306" y="746" width="6" height="9" fill="#e8dba6" opacity="0.27"/>
    <rect x="1323" y="962" width="6" height="9" fill="#e8dba6" opacity="0.45"/>
    <rect x="1340" y="746" width="6" height="9" fill="#e8dba6" opacity="0.52"/>
    <rect x="1340" y="1034" width="6" height="9" fill="#e8dba6" opacity="0.43"/>
    <rect x="1357" y="938" width="6" height="9" fill="#e8dba6" opacity="0.52"/>
    <rect x="1357" y="1010" width="6" height="9" fill="#e8dba6" opacity="0.24"/>
    <rect x="1374" y="842" width="6" height="9" fill="#e8dba6" opacity="0.44"/>
    <rect x="1374" y="1082" width="6" height="9" fill="#e8dba6" opacity="0.26"/>
    <rect x="1425" y="722" width="6" height="9" fill="#e8dba6" opacity="0.52"/>
    <rect x="1442" y="770" width="6" height="9" fill="#e8dba6" opacity="0.38"/>
    <rect x="1442" y="842" width="6" height="9" fill="#e8dba6" opacity="0.19"/>
    <rect x="1442" y="914" width="6" height="9" fill="#e8dba6" opacity="0.37"/>
    <rect x="1519" y="814" width="6" height="9" fill="#e8dba6" opacity="0.47"/>
    <rect x="1519" y="910" width="6" height="9" fill="#e8dba6" opacity="0.55"/>
    <rect x="1519" y="934" width="6" height="9" fill="#e8dba6" opacity="0.38"/>
    <rect x="1553" y="910" width="6" height="9" fill="#e8dba6" opacity="0.29"/>
    <rect x="1603" y="738" width="6" height="9" fill="#e8dba6" opacity="0.59"/>
    <rect x="1603" y="810" width="6" height="9" fill="#e8dba6" opacity="0.45"/>
    <rect x="1603" y="930" width="6" height="9" fill="#e8dba6" opacity="0.56"/>
    <rect x="1637" y="810" width="6" height="9" fill="#e8dba6" opacity="0.53"/>
    <rect x="1637" y="882" width="6" height="9" fill="#e8dba6" opacity="0.58"/>
    <rect x="1654" y="954" width="6" height="9" fill="#e8dba6" opacity="0.30"/>
    <rect x="1671" y="762" width="6" height="9" fill="#e8dba6" opacity="0.22"/>
    <rect x="1671" y="930" width="6" height="9" fill="#e8dba6" opacity="0.54"/>
    <rect x="1671" y="978" width="6" height="9" fill="#e8dba6" opacity="0.53"/>
    <rect x="1688" y="714" width="6" height="9" fill="#e8dba6" opacity="0.22"/>
    <rect x="1688" y="882" width="6" height="9" fill="#e8dba6" opacity="0.29"/>
    <rect x="1688" y="978" width="6" height="9" fill="#e8dba6" opacity="0.48"/>
    <rect x="1705" y="1050" width="6" height="9" fill="#e8dba6" opacity="0.45"/>
    <rect x="1722" y="666" width="6" height="9" fill="#e8dba6" opacity="0.46"/>
    <rect x="1722" y="786" width="6" height="9" fill="#e8dba6" opacity="0.50"/>
    <rect x="1789" y="933" width="6" height="9" fill="#e8dba6" opacity="0.22"/>
    <rect x="1789" y="957" width="6" height="9" fill="#e8dba6" opacity="0.50"/>
    <rect x="1856" y="789" width="6" height="9" fill="#e8dba6" opacity="0.40"/>
    <rect x="1856" y="837" width="6" height="9" fill="#e8dba6" opacity="0.33"/>
    <rect x="1856" y="957" width="6" height="9" fill="#e8dba6" opacity="0.53"/>
    <rect x="1856" y="981" width="6" height="9" fill="#e8dba6" opacity="0.53"/>
    <rect x="1873" y="741" width="6" height="9" fill="#e8dba6" opacity="0.60"/>
    <rect x="1873" y="957" width="6" height="9" fill="#e8dba6" opacity="0.21"/>
    <rect x="1890" y="765" width="6" height="9" fill="#e8dba6" opacity="0.49"/>
    <rect x="1890" y="933" width="6" height="9" fill="#e8dba6" opacity="0.20"/>
    <rect x="1924" y="741" width="6" height="9" fill="#e8dba6" opacity="0.37"/>
    <rect x="1924" y="837" width="6" height="9" fill="#e8dba6" opacity="0.59"/>
    <rect x="1924" y="957" width="6" height="9" fill="#e8dba6" opacity="0.50"/>
    <rect x="1924" y="1053" width="6" height="9" fill="#e8dba6" opacity="0.21"/>
    <rect x="1958" y="1053" width="6" height="9" fill="#e8dba6" opacity="0.20"/>
  </g>
  <rect width="1920" height="1080" fill="url(#cvig)"/>
  <rect width="1920" height="1080" filter="url(#cgrain)" opacity="0.5"/>
</svg>
