<svg xmlns="http://www.w3.org/2000/svg" viewBox="0 0 1920 1080" preserveAspectRatio="xMidYMid slice">
  <defs>
    <linearGradient id="sky" x1="0" y1="0" x2="0" y2="1">
      <stop offset="0" stop-color="#14303a"/>
      <stop offset="0.42" stop-color="#33565a"/>
      <stop offset="0.68" stop-color="#7d9d95"/>
      <stop offset="1" stop-color="#b5cabd"/>
    </linearGradient>
    <radialGradient id="glow" cx="0.54" cy="0.66" r="0.6">
      <stop offset="0" stop-color="#eef2dd" stop-opacity="0.8"/>
      <stop offset="0.38" stop-color="#d3e0c9" stop-opacity="0.32"/>
      <stop offset="1" stop-color="#d3e0c9" stop-opacity="0"/>
    </radialGradient>
    <linearGradient id="ridgeFar" x1="0" y1="0" x2="0" y2="1">
      <stop offset="0" stop-color="#7c9a94"/>
      <stop offset="1" stop-color="#688782"/>
    </linearGradient>
    <linearGradient id="ridgeMid" x1="0" y1="0" x2="0" y2="1">
      <stop offset="0" stop-color="#54746f"/>
      <stop offset="1" stop-color="#40605d"/>
    </linearGradient>
    <linearGradient id="ridgeNear" x1="0" y1="0" x2="0" y2="1">
      <stop offset="0" stop-color="#31504e"/>
      <stop offset="1" stop-color="#22403f"/>
    </linearGradient>
    <linearGradient id="ridgeFront" x1="0" y1="0" x2="0" y2="1">
      <stop offset="0" stop-color="#17322f"/>
      <stop offset="1" stop-color="#0d2226"/>
    </linearGradient>
    <linearGradient id="floor" x1="0" y1="0" x2="0" y2="1">
      <stop offset="0" stop-color="#0f2629"/>
      <stop offset="1" stop-color="#081a20"/>
    </linearGradient>
    <linearGradient id="river" x1="0" y1="0" x2="0" y2="1">
      <stop offset="0" stop-color="#cfe0d2" stop-opacity="0.55"/>
      <stop offset="1" stop-color="#9db8ad" stop-opacity="0.08"/>
    </linearGradient>
    <radialGradient id="vignette" cx="0.5" cy="0.42" r="0.85">
      <stop offset="0" stop-color="#04121a" stop-opacity="0"/>
      <stop offset="0.72" stop-color="#04121a" stop-opacity="0"/>
      <stop offset="1" stop-color="#04121a" stop-opacity="0.5"/>
    </radialGradient>
    <filter id="soften" x="-5%" y="-5%" width="110%" height="110%">
      <feGaussianBlur stdDeviation="7"/>
    </filter>
    <filter id="haze" x="-10%" y="-10%" width="120%" height="120%">
      <feGaussianBlur stdDeviation="24"/>
    </filter>
    <filter id="grain">
      <feTurbulence type="fractalNoise" baseFrequency="0.9" numOctaves="2" stitchTiles="stitch"/>
      <feColorMatrix type="matrix" values="0 0 0 0 1  0 0 0 0 1  0 0 0 0 1  0 0 0 0.05 0"/>
    </filter>
  </defs>

  <rect width="1920" height="1080" fill="url(#sky)"/>
  <rect width="1920" height="1080" fill="url(#glow)"/>

  <!-- far ridge line, hazy against the sky -->
  <path filter="url(#soften)" fill="url(#ridgeFar)" d="M0,560 L0,470 C120,430 220,380 330,400 C430,418 480,470 570,480 C680,492 760,440 870,470 C960,494 1010,540 1120,556 C1260,576 1400,540 1530,566 C1660,590 1790,570 1920,596 L1920,700 L0,700 Z"/>

  <!-- mid ridge sweeping down from the left -->
  <path filter="url(#soften)" fill="url(#ridgeMid)" d="M0,700 L0,520 C90,505 170,460 260,478 C370,500 430,570 540,596 C660,624 760,600 870,636 C960,665 1030,690 1140,700 L1920,700 L1920,760 L0,760 Z"/>

  <!-- low right-hand ridge -->
  <path filter="url(#soften)" fill="url(#ridgeMid)" d="M1080,720 C1180,688 1300,652 1430,664 C1570,677 1700,706 1920,690 L1920,780 L1080,780 Z" opacity="0.85"/>

  <!-- near forested slope, left -->
  <path fill="url(#ridgeNear)" d="M0,860 L0,560 C70,560 130,590 190,632 C260,680 330,700 410,736 C510,780 610,790 720,820 C820,846 920,850 1010,860 Z"/>

  <!-- near forested slope, right -->
  <path fill="url(#ridgeNear)" d="M1920,860 L1920,640 C1830,646 1740,672 1650,706 C1550,744 1450,764 1340,796 C1240,824 1130,844 1040,860 Z"/>

  <!-- valley floor -->
  <path fill="url(#floor)" d="M0,1080 L0,830 C160,822 340,846 520,872 C700,898 860,904 960,906 C1080,908 1260,890 1440,868 C1620,846 1780,834 1920,842 L1920,1080 Z"/>

  <!-- river catching the last light -->
  <path filter="url(#haze)" fill="url(#river)" d="M930,760 C960,790 900,850 850,910 C800,970 760,1030 740,1080 L1210,1080 C1130,1000 1060,930 1020,860 C995,815 975,785 990,760 Z"/>

  <!-- foreground bank -->
  <path fill="url(#ridgeFront)" d="M0,1080 L0,930 C120,916 260,936 400,962 C540,988 640,1010 700,1080 Z"/>
  <path fill="url(#ridgeFront)" d="M1920,1080 L1920,900 C1800,896 1660,918 1520,948 C1390,976 1290,1020 1240,1080 Z"/>

  <!-- drifting fog bands -->
  <rect x="-100" y="580" width="2120" height="90" fill="#dce8dc" opacity="0.16" filter="url(#haze)"/>
  <rect x="-100" y="700" width="2120" height="70" fill="#d2e0d4" opacity="0.12" filter="url(#haze)"/>
  <rect x="200" y="800" width="1500" height="60" fill="#c8d8cc" opacity="0.1" filter="url(#haze)"/>

  <rect width="1920" height="1080" fill="url(#vignette)"/>
  <rect width="1920" height="1080" filter="url(#grain)" opacity="0.5"/>
</svg>
