<svg xmlns="http://www.w3.org/2000/svg" viewBox="0 0 1920 1080" preserveAspectRatio="xMidYMid slice">
  <defs>
    <linearGradient id="hsky" x1="0" y1="0" x2="0" y2="1">
      <stop offset="0" stop-color="#0f1e30"/>
      <stop offset="0.45" stop-color="#283647"/>
      <stop offset="0.78" stop-color="#6f7d8f"/>
      <stop offset="1" stop-color="#aeb5b1"/>
    </linearGradient>
    <radialGradient id="hglow" cx="0.5" cy="0.66" r="0.62">
      <stop offset="0" stop-color="#f0f2da" stop-opacity="0.8"/>
      <stop offset="0.4" stop-color="#d5e0c6" stop-opacity="0.3"/>
      <stop offset="1" stop-color="#d5e0c6" stop-opacity="0"/>
    </radialGradient>
    <filter id="hsoft" x="-20%" y="-20%" width="140%" height="140%"><feGaussianBlur stdDeviation="6"/></filter>
    <filter id="hhaze" x="-20%" y="-20%" width="140%" height="140%"><feGaussianBlur stdDeviation="28"/></filter>
    <filter id="hgrain">
      <feTurbulence type="fractalNoise" baseFrequency="0.9" numOctaves="2" stitchTiles="stitch"/>
      <feColorMatrix type="matrix" values="0 0 0 0 1  0 0 0 0 1  0 0 0 0 1  0 0 0 0.04 0"/>
    </filter>
  </defs>

  <rect width="1920" height="1080" fill="url(#hsky)"/>
  <circle cx="1518" cy="160" r="1.2" fill="#e8ebef" opacity="0.25"/>
  <circle cx="1182" cy="357" r="0.8" fill="#e8ebef" opacity="0.33"/>
  <circle cx="879" cy="278" r="1.6" fill="#e8ebef" opacity="0.51"/>
  <circle cx="1299" cy="327" r="1.3" fill="#e8ebef" opacity="0.40"/>
  <circle cx="817" cy="106" r="1.5" fill="#e8ebef" opacity="0.54"/>
  <circle cx="770" cy="406" r="1.2" fill="#e8ebef" opacity="0.32"/>
  <circle cx="1419" cy="150" r="0.8" fill="#e8ebef" opacity="0.35"/>
  <circle cx="1453" cy="346" r="1.3" fill="#e8ebef" opacity="0.44"/>
  <circle cx="962" cy="413" r="1.6" fill="#e8ebef" opacity="0.20"/>
  <circle cx="572" cy="335" r="0.8" fill="#e8ebef" opacity="0.13"/>
  <circle cx="1459" cy="190" r="1.6" fill="#e8ebef" opacity="0.49"/>
  <circle cx="1839" cy="320" r="0.8" fill="#e8ebef" opacity="0.33"/>
  <circle cx="1351" cy="297" r="1.6" fill="#e8ebef" opacity="0.25"/>
  <circle cx="291" cy="137" r="1.2" fill="#e8ebef" opacity="0.28"/>
  <circle cx="328" cy="122" r="1.4" fill="#e8ebef" opacity="0.54"/>
  <circle cx="367" cy="81" r="0.8" fill="#e8ebef" opacity="0.12"/>
  <circle cx="910" cy="299" r="1.0" fill="#e8ebef" opacity="0.39"/>
  <circle cx="30" cy="289" r="1.4" fill="#e8ebef" opacity="0.22"/>
  <circle cx="1022" cy="210" r="1.4" fill="#e8ebef" opacity="0.24"/>
  <circle cx="444" cy="157" r="0.7" fill="#e8ebef" opacity="0.42"/>
  <circle cx="617" cy="311" r="1.0" fill="#e8ebef" opacity="0.12"/>
  <circle cx="893" cy="175" r="1.2" fill="#e8ebef" opacity="0.28"/>
  <circle cx="1208" cy="81" r="0.9" fill="#e8ebef" opacity="0.55"/>
  <circle cx="58" cy="194" r="1.6" fill="#e8ebef" opacity="0.48"/>
  <circle cx="256" cy="400" r="1.6" fill="#e8ebef" opacity="0.30"/>
  <circle cx="1741" cy="109" r="1.3" fill="#e8ebef" opacity="0.18"/>
  <circle cx="1501" cy="348" r="1.5" fill="#e8ebef" opacity="0.42"/>
  <circle cx="56" cy="180" r="1.3" fill="#e8ebef" opacity="0.16"/>
  <circle cx="945" cy="33" r="1.1" fill="#e8ebef" opacity="0.32"/>
  <circle cx="1715" cy="163" r="0.8" fill="#e8ebef" opacity="0.18"/>
  <circle cx="307" cy="239" r="1.5" fill="#e8ebef" opacity="0.53"/>
  <circle cx="903" cy="77" r="1.2" fill="#e8ebef" opacity="0.13"/>
  <circle cx="1886" cy="104" r="1.6" fill="#e8ebef" opacity="0.13"/>
  <circle cx="837" cy="190" r="1.4" fill="#e8ebef" opacity="0.41"/>
  <circle cx="179" cy="419" r="1.1" fill="#e8ebef" opacity="0.45"/>
  <circle cx="1366" cy="236" r="0.9" fill="#e8ebef" opacity="0.48"/>
  <circle cx="975" cy="155" r="0.7" fill="#e8ebef" opacity="0.42"/>
  <circle cx="607" cy="250" r="1.0" fill="#e8ebef" opacity="0.26"/>
  <circle cx="741" cy="215" r="0.8" fill="#e8ebef" opacity="0.26"/>
  <circle cx="1028" cy="231" r="1.1" fill="#e8ebef" opacity="0.43"/>
  <circle cx="1155" cy="406" r="1.6" fill="#e8ebef" opacity="0.34"/>
  <circle cx="764" cy="233" r="1.4" fill="#e8ebef" opacity="0.39"/>
  <circle cx="1207" cy="43" r="1.0" fill="#e8ebef" opacity="0.26"/>
  <circle cx="894" cy="78" r="1.5" fill="#e8ebef" opacity="0.36"/>
  <circle cx="1418" cy="174" r="1.7" fill="#e8ebef" opacity="0.27"/>
  <circle cx="1806" cy="289" r="1.3" fill="#e8ebef" opacity="0.31"/>
  <circle cx="979" cy="232" r="1.5" fill="#e8ebef" opacity="0.43"/>
  <circle cx="149" cy="262" r="1.6" fill="#e8ebef" opacity="0.31"/>
  <circle cx="1247" cy="306" r="1.3" fill="#e8ebef" opacity="0.38"/>
  <circle cx="1753" cy="47" r="1.1" fill="#e8ebef" opacity="0.41"/>
  <circle cx="248" cy="248" r="0.8" fill="#e8ebef" opacity="0.24"/>
  <circle cx="593" cy="164" r="1.4" fill="#e8ebef" opacity="0.22"/>
  <circle cx="1213" cy="395" r="0.9" fill="#e8ebef" opacity="0.43"/>
  <circle cx="582" cy="243" r="1.6" fill="#e8ebef" opacity="0.48"/>
  <circle cx="596" cy="321" r="1.6" fill="#e8ebef" opacity="0.53"/>
  <circle cx="1491" cy="83" r="1.2" fill="#e8ebef" opacity="0.17"/>
  <circle cx="1657" cy="412" r="1.6" fill="#e8ebef" opacity="0.42"/>
  <circle cx="830" cy="345" r="0.9" fill="#e8ebef" opacity="0.31"/>
  <circle cx="1755" cy="268" r="0.8" fill="#e8ebef" opacity="0.43"/>
  <circle cx="164" cy="62" r="1.5" fill="#e8ebef" opacity="0.21"/>
  <circle cx="1370" cy="328" r="0.9" fill="#e8ebef" opacity="0.44"/>
  <circle cx="513" cy="178" r="1.2" fill="#e8ebef" opacity="0.47"/>
  <circle cx="282" cy="320" r="1.1" fill="#e8ebef" opacity="0.52"/>
  <circle cx="272" cy="312" r="1.0" fill="#e8ebef" opacity="0.15"/>
  <circle cx="111" cy="138" r="1.6" fill="#e8ebef" opacity="0.46"/>
  <circle cx="1407" cy="348" r="1.6" fill="#e8ebef" opacity="0.29"/>
  <circle cx="1689" cy="343" r="1.0" fill="#e8ebef" opacity="0.51"/>
  <circle cx="896" cy="42" r="0.9" fill="#e8ebef" opacity="0.24"/>
  <circle cx="1129" cy="289" r="0.9" fill="#e8ebef" opacity="0.13"/>
  <circle cx="47" cy="268" r="1.0" fill="#e8ebef" opacity="0.35"/>
  <rect width="1920" height="1080" fill="url(#hglow)"/>
  <g fill="#717f90" filter="url(#hsoft)" opacity="0.75">
    <rect x="-50" y="689" width="65" height="181"/>
    <rect x="17" y="655" width="85" height="215"/>
    <rect x="128" y="677" width="35" height="193"/>
    <rect x="171" y="684" width="44" height="186"/>
    <rect x="230" y="600" width="84" height="270"/>
    <rect x="338" y="711" width="77" height="159"/>
    <rect x="431" y="633" width="82" height="237"/>
    <rect x="538" y="652" width="39" height="218"/>
    <rect x="583" y="568" width="79" height="302"/>
    <rect x="622" y="528" width="3" height="50"/>
    <rect x="685" y="719" width="48" height="151"/>
    <rect x="696" y="701" width="25" height="30"/>
    <rect x="750" y="668" width="65" height="202"/>
    <rect x="835" y="658" width="41" height="212"/>
    <rect x="848" y="637" width="16" height="30"/>
    <rect x="895" y="713" width="53" height="157"/>
    <rect x="906" y="694" width="31" height="30"/>
    <rect x="968" y="682" width="84" height="188"/>
    <rect x="988" y="667" width="43" height="30"/>
    <rect x="1058" y="626" width="87" height="244"/>
    <rect x="1169" y="699" width="36" height="171"/>
    <rect x="1177" y="674" width="18" height="30"/>
    <rect x="1223" y="686" width="61" height="184"/>
    <rect x="1241" y="663" width="24" height="30"/>
    <rect x="1252" y="656" width="3" height="50"/>
    <rect x="1314" y="616" width="88" height="254"/>
    <rect x="1416" y="721" width="43" height="149"/>
    <rect x="1427" y="699" width="21" height="30"/>
    <rect x="1479" y="575" width="81" height="295"/>
    <rect x="1576" y="697" width="89" height="173"/>
    <rect x="1595" y="683" width="50" height="30"/>
    <rect x="1686" y="664" width="62" height="206"/>
    <rect x="1716" y="627" width="3" height="50"/>
    <rect x="1759" y="698" width="47" height="172"/>
    <rect x="1816" y="685" width="90" height="185"/>
    <rect x="1917" y="697" width="41" height="173"/>
  </g>
  <rect x="-100" y="700" width="2120" height="180" fill="#dfe4e0" opacity="0.32" filter="url(#hhaze)"/>
  <rect width="1920" height="1080" filter="url(#hgrain)" opacity="0.5"/>
</svg>
