<svg xmlns="http://www.w3.org/2000/svg" viewBox="0 0 1920 1600" preserveAspectRatio="xMidYMid slice">
  <defs>
    <linearGradient id="psky" x1="0" y1="0" x2="0" y2="1">
      <stop offset="0" stop-color="#f6faf5"/>
      <stop offset="0.5" stop-color="#ebf7f1"/>
      <stop offset="1" stop-color="#f3f8f2"/>
    </linearGradient>
    <radialGradient id="psun" cx="0.5" cy="0" r="0.6">
      <stop offset="0" stop-color="#f4f1d8" stop-opacity="0.5"/>
      <stop offset="1" stop-color="#f4f1d8" stop-opacity="0"/>
    </radialGradient>
  </defs>
  <rect width="1920" height="1600" fill="url(#psky)"/>
  <rect width="1920" height="1600" fill="url(#psun)"/>
  <g stroke="#cfe0d3" stroke-width="1.6" fill="none" opacity="0.75">
    <path d="M508,400 L504,418 L491,434 L474,447 L456,457 L441,466 L430,475 L421,485 L414,496 L406,506 L395,514 L384,519 L371,524 L360,528 L349,534 L338,542 L326,550 L314,556 L300,558 L286,557 L273,554 L260,550 L246,549 L230,551 L211,554 L191,556 L171,553 L156,544 L146,529 L145,509 L149,487 L156,467 L163,450 L168,435 L170,423 L170,411 L170,400 L170,389 L170,377 L169,365 L167,352 L163,336 L158,318 L156,299 L158,281 L166,266 L180,257 L197,252 L214,251 L230,250 L244,246 L257,239 L270,230 L285,223 L300,220 L315,223 L329,233 L341,246 L351,260 L359,273 L368,283 L377,291 L386,298 L395,305 L403,313 L412,322 L422,330 L435,337 L452,345 L471,354 L489,367 L503,382 L508,400 Z"/>
    <path d="M606,400 L599,426 L581,449 L555,468 L529,483 L507,496 L490,510 L478,525 L467,540 L455,555 L440,567 L423,575 L405,582 L388,589 L372,597 L356,608 L339,620 L320,629 L300,633 L280,631 L260,626 L241,621 L220,619 L197,621 L169,626 L140,629 L111,625 L88,612 L74,589 L72,560 L78,528 L89,499 L99,473 L106,452 L109,434 L109,417 L109,400 L109,383 L109,366 L108,349 L105,329 L98,306 L92,280 L88,252 L92,225 L104,204 L124,190 L148,183 L174,181 L197,179 L218,174 L237,164 L256,151 L277,140 L300,136 L323,141 L343,155 L361,174 L375,195 L387,213 L400,228 L413,239 L426,250 L439,261 L452,273 L464,285 L479,297 L498,308 L523,319 L551,333 L578,351 L598,374 L606,400 Z"/>
    <path d="M736,400 L727,437 L700,471 L664,498 L627,519 L595,538 L572,557 L554,578 L539,600 L521,621 L500,638 L475,650 L450,660 L425,669 L402,681 L380,697 L355,714 L329,726 L300,732 L271,730 L243,723 L216,715 L186,713 L153,716 L114,723 L71,727 L30,722 L-3,703 L-22,670 L-26,628 L-17,583 L-2,541 L13,504 L23,474 L27,448 L28,424 L27,400 L27,376 L28,352 L26,327 L21,298 L12,266 L3,228 L-2,188 L2,150 L20,120 L48,100 L83,91 L120,88 L153,85 L182,77 L210,63 L237,44 L268,29 L300,23 L332,30 L362,50 L386,77 L407,107 L424,133 L442,154 L461,170 L480,185 L499,201 L516,218 L534,236 L555,253 L582,268 L618,284 L658,304 L697,330 L725,363 L736,400 Z"/>
    <path d="M794,400 L783,442 L754,480 L712,511 L670,535 L634,556 L607,578 L588,602 L570,627 L551,651 L526,670 L499,684 L470,694 L442,705 L416,719 L390,737 L363,755 L332,770 L300,776 L267,774 L236,765 L204,757 L171,754 L133,758 L89,766 L41,770 L-6,764 L-43,743 L-64,706 L-69,658 L-59,607 L-42,559 L-25,518 L-13,484 L-9,454 L-9,427 L-9,400 L-9,373 L-9,346 L-10,317 L-16,285 L-26,248 L-37,206 L-42,160 L-37,117 L-17,83 L15,60 L55,50 L96,46 L134,43 L167,34 L198,18 L229,-3 L263,-20 L300,-27 L337,-19 L370,3 L398,35 L421,68 L441,98 L461,121 L482,140 L504,157 L525,175 L545,194 L565,214 L589,233 L620,251 L660,269 L705,291 L749,321 L781,358 L794,400 Z"/>
    <path d="M953,400 L939,456 L899,506 L845,546 L789,578 L742,606 L706,635 L680,666 L657,700 L631,731 L599,757 L562,775 L524,789 L488,803 L453,821 L419,845 L383,869 L343,889 L300,897 L257,894 L215,883 L174,872 L130,868 L79,873 L21,883 L-43,889 L-104,882 L-153,853 L-182,804 L-187,741 L-174,674 L-152,611 L-129,556 L-114,511 L-108,472 L-108,436 L-109,400 L-109,364 L-108,328 L-110,290 L-117,248 L-131,199 L-145,143 L-153,83 L-145,26 L-119,-19 L-77,-49 L-24,-63 L30,-67 L80,-72 L124,-83 L165,-105 L206,-132 L251,-155 L300,-164 L348,-154 L392,-124 L429,-83 L460,-39 L486,1 L513,32 L541,56 L570,79 L598,102 L624,128 L650,155 L682,180 L723,203 L775,227 L836,256 L893,295 L936,344 L953,400 Z"/>
    <path d="M1010,400 L995,461 L952,515 L893,559 L832,594 L780,624 L742,655 L714,690 L689,726 L660,760 L625,788 L585,808 L544,823 L504,838 L467,858 L430,884 L390,911 L346,931 L300,941 L253,937 L207,925 L162,913 L115,909 L60,915 L-4,926 L-73,932 L-139,924 L-193,893 L-224,840 L-230,771 L-216,698 L-191,629 L-167,570 L-150,521 L-144,478 L-144,439 L-145,400 L-145,361 L-144,322 L-146,281 L-154,235 L-169,182 L-184,120 L-192,55 L-184,-6 L-156,-56 L-110,-88 L-53,-104 L6,-108 L61,-113 L109,-126 L153,-149 L198,-179 L247,-204 L300,-214 L353,-202 L401,-170 L441,-125 L474,-77 L503,-34 L531,0 L562,26 L593,51 L624,76 L652,104 L681,133 L715,160 L760,186 L817,212 L883,244 L945,286 L992,339 L1010,400 Z"/>
    <path d="M1781,340 L1768,356 L1753,369 L1740,380 L1731,391 L1726,403 L1723,417 L1720,431 L1713,443 L1703,453 L1689,458 L1674,460 L1660,461 L1647,463 L1636,468 L1626,475 L1615,483 L1603,491 L1590,496 L1576,500 L1561,503 L1545,507 L1528,511 L1509,514 L1490,514 L1472,508 L1460,495 L1454,476 L1455,453 L1461,431 L1467,411 L1471,395 L1471,383 L1466,373 L1458,363 L1451,352 L1446,340 L1443,327 L1443,314 L1443,301 L1443,286 L1442,271 L1443,255 L1447,240 L1454,226 L1466,216 L1479,208 L1493,202 L1506,194 L1518,185 L1529,174 L1542,163 L1557,155 L1574,154 L1590,161 L1604,175 L1616,193 L1625,210 L1633,223 L1641,230 L1651,234 L1664,235 L1677,236 L1691,239 L1705,244 L1719,250 L1734,257 L1749,266 L1765,276 L1779,289 L1787,305 L1788,323 L1781,340 Z"/>
    <path d="M1891,340 L1871,365 L1847,385 L1826,403 L1812,421 L1804,440 L1800,461 L1794,483 L1784,503 L1767,517 L1746,526 L1722,529 L1700,530 L1680,534 L1663,541 L1647,553 L1630,566 L1611,578 L1590,586 L1568,592 L1545,597 L1520,602 L1492,609 L1462,614 L1432,614 L1405,605 L1385,584 L1376,554 L1377,518 L1386,483 L1397,452 L1403,427 L1403,408 L1395,392 L1383,377 L1371,359 L1363,340 L1359,320 L1358,299 L1358,278 L1358,256 L1357,231 L1358,206 L1364,182 L1376,160 L1394,144 L1415,132 L1437,122 L1458,111 L1476,96 L1495,78 L1515,60 L1539,48 L1564,47 L1590,58 L1613,80 L1631,108 L1645,134 L1657,155 L1670,167 L1687,173 L1706,174 L1727,176 L1749,181 L1771,188 L1793,198 L1816,209 L1841,223 L1866,240 L1887,260 L1900,285 L1902,313 L1891,340 Z"/>
    <path d="M1987,340 L1960,372 L1929,400 L1902,424 L1882,446 L1872,471 L1866,500 L1859,529 L1846,555 L1824,574 L1795,585 L1764,589 L1735,591 L1709,595 L1687,605 L1665,620 L1642,638 L1617,653 L1590,664 L1561,672 L1530,679 L1497,686 L1461,694 L1421,701 L1381,701 L1346,689 L1320,662 L1308,622 L1310,575 L1321,528 L1335,487 L1344,455 L1343,430 L1333,409 L1317,388 L1301,365 L1290,340 L1285,313 L1285,286 L1285,258 L1284,229 L1283,197 L1285,164 L1292,131 L1308,103 L1331,81 L1360,66 L1389,52 L1415,38 L1440,18 L1464,-5 L1491,-29 L1522,-44 L1556,-46 L1590,-32 L1620,-3 L1644,34 L1663,69 L1679,96 L1696,113 L1717,119 L1743,122 L1771,124 L1800,130 L1829,140 L1858,153 L1888,168 L1921,186 L1953,208 L1981,235 L1999,268 L2001,304 L1987,340 Z"/>
    <path d="M2073,340 L2041,379 L2004,413 L1970,442 L1946,470 L1934,500 L1927,535 L1918,570 L1902,602 L1875,625 L1840,638 L1802,643 L1766,646 L1735,651 L1708,663 L1682,682 L1654,703 L1623,722 L1590,736 L1555,745 L1517,753 L1477,762 L1433,772 L1385,781 L1336,780 L1292,765 L1261,733 L1246,684 L1248,627 L1263,569 L1279,519 L1290,480 L1289,450 L1276,424 L1257,399 L1238,371 L1225,340 L1219,308 L1218,274 L1218,240 L1217,204 L1216,166 L1218,125 L1227,86 L1246,51 L1275,25 L1309,5 L1345,-11 L1377,-29 L1407,-52 L1437,-81 L1470,-109 L1507,-129 L1549,-131 L1590,-113 L1627,-78 L1656,-33 L1678,10 L1698,43 L1719,63 L1745,71 L1776,74 L1811,77 L1846,84 L1881,96 L1916,112 L1954,130 L1993,152 L2033,179 L2067,212 L2088,252 L2091,296 L2073,340 Z"/>
    <path d="M2146,340 L2109,385 L2065,424 L2027,457 L2000,489 L1985,524 L1977,564 L1967,604 L1948,641 L1918,668 L1877,683 L1834,688 L1793,691 L1757,698 L1725,712 L1695,733 L1664,757 L1628,779 L1590,795 L1549,805 L1506,814 L1460,825 L1409,837 L1354,846 L1298,846 L1248,829 L1211,791 L1195,735 L1197,669 L1214,604 L1233,546 L1245,501 L1244,466 L1229,437 L1207,408 L1185,375 L1170,340 L1163,303 L1162,265 L1163,225 L1162,184 L1160,140 L1162,93 L1173,48 L1195,8 L1228,-22 L1267,-44 L1308,-63 L1345,-84 L1380,-111 L1414,-144 L1452,-176 L1495,-199 L1543,-201 L1590,-181 L1632,-140 L1666,-89 L1692,-40 L1714,-1 L1739,21 L1768,31 L1804,34 L1844,38 L1884,46 L1925,59 L1965,77 L2008,99 L2053,124 L2099,155 L2138,193 L2163,239 L2165,290 L2146,340 Z"/>
    <path d="M2251,340 L2207,394 L2156,440 L2110,479 L2078,517 L2060,559 L2051,606 L2039,655 L2017,698 L1980,730 L1932,748 L1880,755 L1831,758 L1789,766 L1751,782 L1715,808 L1678,836 L1636,862 L1590,881 L1542,894 L1490,904 L1435,917 L1375,931 L1309,943 L1242,943 L1182,922 L1139,877 L1119,811 L1123,732 L1142,654 L1165,585 L1180,531 L1178,490 L1161,455 L1134,420 L1108,382 L1090,340 L1082,296 L1081,250 L1081,204 L1080,154 L1078,101 L1081,46 L1093,-8 L1120,-55 L1159,-91 L1206,-118 L1254,-140 L1299,-164 L1340,-196 L1380,-236 L1425,-275 L1477,-301 L1534,-304 L1590,-280 L1640,-232 L1680,-171 L1711,-112 L1738,-66 L1767,-39 L1802,-28 L1845,-24 L1892,-20 L1940,-10 L1988,6 L2036,27 L2087,53 L2142,83 L2196,119 L2243,165 L2272,220 L2275,280 L2251,340 Z"/>
    <path d="M1262,1260 L1261,1272 L1259,1284 L1256,1297 L1255,1309 L1255,1323 L1254,1337 L1250,1351 L1244,1364 L1234,1374 L1224,1383 L1213,1392 L1202,1402 L1191,1412 L1179,1422 L1165,1428 L1150,1428 L1134,1421 L1120,1407 L1109,1391 L1100,1375 L1092,1365 L1084,1360 L1073,1361 L1060,1364 L1045,1367 L1030,1368 L1015,1365 L1002,1359 L990,1351 L978,1342 L966,1332 L956,1320 L949,1306 L947,1290 L951,1275 L959,1260 L969,1247 L978,1235 L984,1224 L987,1211 L988,1198 L990,1185 L995,1173 L1006,1164 L1020,1160 L1035,1159 L1049,1159 L1061,1158 L1070,1153 L1078,1145 L1086,1133 L1096,1122 L1107,1111 L1120,1104 L1134,1098 L1149,1095 L1165,1092 L1181,1091 L1198,1093 L1212,1100 L1223,1112 L1229,1130 L1230,1150 L1227,1170 L1223,1188 L1222,1201 L1225,1211 L1233,1219 L1244,1227 L1253,1236 L1260,1248 L1262,1260 Z"/>
    <path d="M1368,1260 L1366,1282 L1362,1303 L1358,1324 L1356,1346 L1355,1370 L1353,1395 L1347,1419 L1335,1441 L1319,1459 L1300,1475 L1281,1491 L1263,1507 L1244,1525 L1223,1542 L1198,1552 L1172,1552 L1144,1540 L1120,1517 L1100,1488 L1085,1461 L1071,1442 L1057,1434 L1038,1435 L1015,1441 L989,1447 L963,1448 L937,1443 L914,1433 L893,1419 L872,1403 L852,1385 L835,1364 L823,1340 L819,1313 L825,1286 L839,1260 L857,1237 L873,1216 L883,1197 L888,1175 L890,1153 L893,1129 L903,1108 L921,1093 L945,1085 L972,1083 L997,1084 L1017,1082 L1033,1074 L1047,1059 L1061,1040 L1078,1019 L1097,1001 L1120,988 L1145,979 L1171,972 L1198,968 L1227,966 L1255,970 L1281,981 L1300,1003 L1310,1033 L1311,1069 L1306,1104 L1300,1134 L1298,1157 L1304,1174 L1317,1188 L1335,1202 L1352,1219 L1364,1239 L1368,1260 Z"/>
    <path d="M1448,1260 L1446,1289 L1440,1316 L1434,1344 L1432,1374 L1431,1405 L1428,1438 L1420,1470 L1405,1499 L1383,1523 L1359,1545 L1334,1565 L1309,1587 L1284,1611 L1256,1633 L1224,1647 L1188,1647 L1152,1630 L1120,1600 L1094,1562 L1073,1526 L1055,1501 L1036,1490 L1012,1492 L982,1500 L947,1507 L912,1508 L878,1502 L848,1489 L819,1470 L792,1449 L766,1425 L742,1397 L726,1365 L722,1330 L730,1294 L748,1260 L772,1230 L793,1202 L807,1176 L813,1148 L815,1118 L820,1087 L833,1059 L857,1039 L889,1029 L924,1026 L957,1027 L984,1024 L1005,1014 L1023,994 L1042,968 L1064,941 L1090,917 L1120,900 L1153,888 L1187,879 L1224,873 L1262,871 L1299,876 L1333,891 L1358,920 L1372,960 L1373,1007 L1366,1054 L1358,1094 L1355,1124 L1363,1147 L1381,1165 L1405,1184 L1428,1206 L1443,1232 L1448,1260 Z"/>
    <path d="M1490,1260 L1487,1292 L1481,1324 L1475,1355 L1472,1388 L1471,1424 L1468,1461 L1459,1497 L1441,1530 L1417,1557 L1389,1581 L1361,1604 L1333,1629 L1305,1656 L1273,1681 L1237,1696 L1197,1696 L1157,1678 L1120,1643 L1090,1600 L1067,1560 L1047,1532 L1025,1520 L998,1521 L964,1530 L925,1538 L885,1540 L847,1533 L813,1518 L781,1497 L750,1473 L720,1446 L694,1415 L676,1379 L671,1339 L680,1298 L701,1260 L727,1226 L751,1195 L766,1165 L773,1134 L776,1100 L782,1065 L796,1033 L823,1011 L859,999 L899,996 L936,997 L967,994 L991,982 L1011,960 L1032,931 L1057,900 L1086,874 L1120,854 L1157,840 L1196,831 L1237,824 L1280,821 L1322,827 L1360,844 L1389,876 L1404,922 L1405,975 L1398,1027 L1388,1072 L1385,1107 L1394,1132 L1415,1153 L1441,1174 L1467,1199 L1484,1228 L1490,1260 Z"/>
    <path d="M1595,1260 L1592,1301 L1583,1342 L1575,1382 L1572,1424 L1570,1470 L1566,1518 L1555,1564 L1532,1606 L1501,1641 L1466,1672 L1429,1702 L1393,1734 L1357,1768 L1317,1800 L1270,1820 L1219,1820 L1167,1796 L1120,1751 L1082,1697 L1052,1645 L1026,1609 L999,1593 L964,1595 L920,1607 L870,1617 L818,1619 L770,1610 L726,1591 L685,1565 L645,1534 L607,1499 L573,1459 L550,1413 L543,1362 L555,1309 L582,1260 L616,1216 L646,1176 L666,1138 L675,1098 L679,1054 L686,1009 L705,969 L739,940 L785,925 L836,922 L884,923 L923,919 L954,904 L980,875 L1007,838 L1039,798 L1077,764 L1120,738 L1167,721 L1217,709 L1270,700 L1325,697 L1379,704 L1428,726 L1465,767 L1484,826 L1486,894 L1476,961 L1464,1019 L1460,1064 L1472,1096 L1498,1122 L1533,1149 L1565,1181 L1587,1219 L1595,1260 Z"/>
    <path d="M1670,1260 L1665,1308 L1655,1354 L1646,1401 L1642,1450 L1641,1503 L1636,1558 L1623,1612 L1597,1660 L1561,1701 L1520,1736 L1478,1771 L1436,1808 L1394,1848 L1347,1884 L1294,1908 L1234,1908 L1174,1880 L1120,1828 L1076,1765 L1041,1706 L1012,1664 L980,1646 L939,1648 L888,1661 L831,1673 L771,1676 L715,1665 L664,1642 L617,1612 L571,1577 L527,1537 L488,1490 L461,1437 L453,1378 L467,1317 L498,1260 L537,1209 L572,1163 L595,1119 L606,1073 L610,1022 L618,970 L640,924 L679,890 L733,873 L792,869 L847,870 L892,866 L928,848 L958,815 L989,772 L1026,726 L1070,687 L1120,657 L1175,637 L1232,623 L1293,613 L1357,609 L1420,617 L1476,643 L1519,690 L1541,758 L1544,836 L1532,914 L1518,981 L1513,1033 L1527,1070 L1557,1101 L1597,1132 L1635,1169 L1660,1213 L1670,1260 Z"/>
    <path d="M359,1330 L365,1344 L369,1358 L372,1373 L375,1390 L375,1407 L372,1424 L363,1437 L349,1446 L329,1449 L308,1447 L289,1442 L272,1438 L260,1438 L251,1442 L242,1450 L233,1459 L222,1466 L210,1470 L198,1470 L186,1468 L174,1466 L161,1464 L148,1463 L134,1462 L120,1459 L107,1453 L96,1444 L87,1433 L79,1422 L70,1411 L60,1400 L49,1388 L40,1375 L36,1361 L39,1345 L50,1330 L65,1317 L83,1308 L98,1300 L107,1293 L111,1284 L111,1273 L109,1260 L109,1245 L111,1231 L115,1217 L122,1205 L130,1192 L140,1180 L151,1168 L164,1159 L179,1154 L195,1154 L210,1161 L224,1171 L236,1182 L247,1191 L259,1196 L271,1199 L285,1201 L298,1205 L308,1213 L315,1225 L317,1240 L317,1255 L316,1269 L318,1280 L323,1289 L331,1297 L342,1307 L351,1318 L359,1330 Z"/>
    <path d="M440,1330 L449,1351 L455,1373 L460,1397 L464,1423 L465,1449 L460,1475 L447,1496 L424,1510 L394,1514 L362,1511 L332,1504 L306,1497 L287,1496 L273,1503 L259,1515 L245,1529 L228,1540 L210,1546 L191,1547 L172,1543 L154,1539 L135,1536 L114,1535 L93,1533 L71,1529 L51,1519 L34,1506 L21,1489 L8,1472 L-6,1455 L-22,1438 L-38,1420 L-52,1400 L-58,1377 L-54,1353 L-37,1330 L-13,1310 L14,1295 L37,1284 L52,1272 L58,1259 L57,1242 L55,1221 L54,1199 L57,1177 L64,1156 L74,1136 L87,1117 L102,1098 L119,1080 L139,1065 L162,1057 L186,1059 L210,1069 L231,1085 L250,1102 L267,1116 L285,1124 L304,1128 L325,1130 L345,1137 L362,1149 L372,1168 L376,1191 L375,1215 L374,1235 L376,1252 L384,1267 L398,1280 L413,1294 L428,1311 L440,1330 Z"/>
    <path d="M541,1330 L553,1360 L562,1392 L570,1426 L576,1463 L577,1501 L570,1538 L550,1568 L518,1588 L475,1595 L428,1590 L385,1579 L349,1570 L321,1569 L300,1578 L281,1596 L260,1616 L236,1632 L210,1641 L183,1642 L156,1637 L129,1631 L102,1627 L72,1625 L41,1622 L10,1616 L-18,1602 L-42,1582 L-62,1558 L-81,1533 L-100,1509 L-123,1485 L-147,1460 L-167,1431 L-176,1398 L-169,1363 L-146,1330 L-111,1302 L-72,1280 L-39,1263 L-18,1247 L-9,1228 L-9,1203 L-13,1174 L-15,1141 L-10,1110 L0,1080 L15,1052 L34,1024 L55,997 L79,970 L108,949 L141,938 L176,940 L210,955 L241,978 L268,1002 L293,1022 L318,1034 L346,1039 L376,1043 L405,1052 L428,1070 L443,1097 L448,1130 L447,1164 L446,1194 L449,1218 L461,1239 L480,1258 L502,1278 L523,1303 L541,1330 Z"/>
    <path d="M607,1330 L622,1366 L632,1404 L642,1446 L649,1490 L651,1535 L642,1579 L618,1616 L579,1640 L528,1648 L472,1642 L420,1629 L376,1618 L344,1617 L318,1628 L295,1649 L270,1673 L242,1693 L210,1703 L177,1704 L145,1698 L113,1691 L80,1686 L45,1684 L8,1681 L-30,1673 L-64,1657 L-93,1633 L-117,1604 L-139,1574 L-162,1545 L-190,1516 L-218,1486 L-242,1451 L-253,1412 L-245,1370 L-217,1330 L-175,1296 L-129,1270 L-89,1250 L-63,1231 L-53,1208 L-53,1178 L-58,1142 L-60,1104 L-54,1066 L-42,1030 L-24,996 L-2,963 L24,930 L53,899 L88,873 L127,860 L169,862 L210,880 L247,907 L279,937 L309,960 L339,974 L373,981 L409,986 L444,996 L472,1018 L490,1050 L496,1090 L495,1131 L493,1167 L497,1196 L511,1220 L534,1243 L560,1268 L586,1297 L607,1330 Z"/>
    <path d="M734,1330 L754,1378 L768,1428 L780,1483 L790,1541 L792,1601 L781,1660 L750,1708 L698,1739 L630,1750 L556,1743 L487,1726 L430,1711 L387,1709 L353,1723 L323,1751 L290,1783 L252,1810 L210,1823 L167,1824 L124,1816 L82,1807 L39,1801 L-8,1798 L-58,1793 L-107,1783 L-152,1762 L-190,1730 L-222,1692 L-251,1653 L-282,1614 L-318,1576 L-356,1536 L-387,1490 L-401,1438 L-391,1383 L-354,1330 L-299,1286 L-238,1251 L-185,1224 L-151,1199 L-137,1168 L-138,1129 L-144,1082 L-146,1031 L-139,981 L-123,933 L-99,889 L-70,845 L-36,802 L3,760 L48,727 L100,709 L156,712 L210,735 L259,772 L302,810 L341,842 L381,860 L425,869 L473,875 L519,889 L556,917 L579,961 L588,1013 L586,1067 L584,1114 L589,1153 L608,1185 L638,1215 L673,1248 L707,1287 L734,1330 Z"/>
    <path d="M817,1330 L839,1385 L856,1444 L870,1507 L881,1574 L884,1644 L871,1711 L835,1768 L775,1804 L696,1816 L611,1808 L531,1788 L465,1771 L414,1768 L376,1785 L341,1817 L303,1855 L259,1885 L210,1901 L160,1902 L111,1893 L62,1882 L12,1875 L-42,1871 L-100,1866 L-157,1854 L-209,1830 L-253,1793 L-290,1749 L-323,1703 L-359,1659 L-401,1615 L-445,1568 L-481,1515 L-498,1455 L-485,1391 L-443,1330 L-379,1278 L-308,1239 L-247,1207 L-208,1178 L-192,1143 L-193,1098 L-200,1043 L-202,984 L-194,926 L-175,871 L-148,819 L-114,769 L-75,718 L-30,670 L23,631 L83,611 L147,614 L210,641 L267,684 L316,729 L361,765 L408,786 L459,796 L514,803 L567,819 L611,852 L638,902 L647,963 L645,1025 L642,1080 L649,1125 L670,1162 L705,1197 L746,1235 L785,1280 L817,1330 Z"/>
  </g>
  <path d="M130,190 C470,120 770,300 905,520 C1050,740 850,900 965,1075 C1075,1245 1210,1300 1430,1345 C1540,1367 1620,1385 1685,1398"
    stroke="#0b9a48" stroke-opacity="0.32" stroke-width="2.5" stroke-dasharray="2 11" stroke-linecap="round" fill="none"/>
  <circle cx="470" cy="250" r="5" fill="#0b9a48" opacity="0.4"/>
  <circle cx="905" cy="520" r="5" fill="#0b9a48" opacity="0.4"/>
  <circle cx="965" cy="1075" r="5" fill="#0b9a48" opacity="0.4"/>
  <circle cx="1430" cy="1345" r="5" fill="#0b9a48" opacity="0.4"/>
  <g stroke="#0b9a48" stroke-opacity="0.55" stroke-width="2.5" fill="none">
    <line x1="1700" y1="1398" x2="1700" y2="1358"/>
    <path d="M1700,1358 l30,10 l-30,10 z" fill="#0b9a48" fill-opacity="0.4"/>
  </g>
</svg>
