<svg xmlns="http://www.w3.org/2000/svg" xmlns:xlink="http://www.w3.org/1999/xlink" viewBox="0 0 1920 1300" preserveAspectRatio="xMidYMid slice">
  <defs>
    <linearGradient id="tsky" x1="0" y1="0" x2="0" y2="1">
      <stop offset="0" stop-color="#e9f1ec"/>
      <stop offset="0.5" stop-color="#f3f8f2"/>
      <stop offset="1" stop-color="#ebf7f1"/>
    </linearGradient>
    <radialGradient id="tsun" cx="0.2" cy="0.08" r="0.5">
      <stop offset="0" stop-color="#f4f1d8" stop-opacity="0.6"/>
      <stop offset="1" stop-color="#f4f1d8" stop-opacity="0"/>
    </radialGradient>
    <g id="doc" stroke="currentColor" stroke-width="3" fill="none">
      <rect x="-34" y="-44" width="68" height="88" rx="10"/>
      <line x1="-18" y1="-18" x2="18" y2="-18"/>
      <line x1="-18" y1="0" x2="18" y2="0"/>
      <line x1="-18" y1="18" x2="6" y2="18"/>
    </g>
    <g id="chat" stroke="currentColor" stroke-width="3" fill="none">
      <path d="M-38,-30 h76 a10,10 0 0 1 10,10 v34 a10,10 0 0 1 -10,10 h-40 l-20,18 v-18 h-16 a10,10 0 0 1 -10,-10 v-34 a10,10 0 0 1 10,-10 z"/>
      <line x1="-20" y1="-8" x2="20" y2="-8"/>
      <line x1="-20" y1="8" x2="8" y2="8"/>
    </g>
    <g id="case" stroke="currentColor" stroke-width="3" fill="none">
      <rect x="-40" y="-22" width="80" height="52" rx="10"/>
      <path d="M-14,-22 v-8 a8,8 0 0 1 8,-8 h12 a8,8 0 0 1 8,8 v8"/>
    </g>
    <g id="cal" stroke="currentColor" stroke-width="3" fill="none">
      <rect x="-36" y="-34" width="72" height="70" rx="10"/>
      <line x1="-36" y1="-14" x2="36" y2="-14"/>
      <line x1="-16" y1="-46" x2="-16" y2="-30"/>
      <line x1="16" y1="-46" x2="16" y2="-30"/>
      <path d="M-12,8 l8,8 l16,-16"/>
    </g>
    <g id="search" stroke="currentColor" stroke-width="3" fill="none">
      <circle cx="-6" cy="-6" r="26"/>
      <line x1="14" y1="14" x2="34" y2="34"/>
    </g>
    <g id="mic" stroke="currentColor" stroke-width="3" fill="none">
      <rect x="-12" y="-40" width="24" height="46" rx="12"/>
      <path d="M-26,-6 a26,26 0 0 0 52,0"/>
      <line x1="0" y1="22" x2="0" y2="38"/>
    </g>
    <g id="pen" stroke="currentColor" stroke-width="3" fill="none">
      <path d="M-30,30 l44,-44 l14,14 l-44,44 l-18,4 z"/>
      <line x1="8" y1="-8" x2="20" y2="4"/>
    </g>
    <g id="id" stroke="currentColor" stroke-width="3" fill="none">
      <rect x="-42" y="-28" width="84" height="56" rx="10"/>
      <circle cx="-20" cy="-2" r="10"/>
      <line x1="2" y1="-10" x2="30" y2="-10"/>
      <line x1="2" y1="6" x2="22" y2="6"/>
    </g>
    <g id="grad" stroke="currentColor" stroke-width="3" fill="none">
      <path d="M-40,-8 l40,-18 l40,18 l-40,18 z"/>
      <path d="M-22,2 v18 a22,10 0 0 0 44,0 v-18"/>
      <line x1="40" y1="-8" x2="40" y2="16"/>
    </g>
  </defs>
  <rect width="1920" height="1300" fill="url(#tsky)"/>
  <rect width="1920" height="1300" fill="url(#tsun)"/>
  <g color="#c6dacb" opacity="0.75">
    <use xlink:href="#doc" transform="translate(76,97) rotate(-18.5) scale(0.48)"/>
    <use xlink:href="#chat" transform="translate(225,97) rotate(15.1) scale(0.37)"/>
    <use xlink:href="#case" transform="translate(345,92) rotate(15.3) scale(0.50)"/>
    <use xlink:href="#cal" transform="translate(514,69) rotate(-11.5) scale(0.39)"/>
    <use xlink:href="#search" transform="translate(651,63) rotate(13.5) scale(0.37)"/>
    <use xlink:href="#mic" transform="translate(833,50) rotate(9.6) scale(0.45)"/>
    <use xlink:href="#pen" transform="translate(966,71) rotate(-13.5) scale(0.42)"/>
    <use xlink:href="#id" transform="translate(1139,90) rotate(-17.4) scale(0.37)"/>
    <use xlink:href="#grad" transform="translate(1269,65) rotate(-17.8) scale(0.41)"/>
    <use xlink:href="#doc" transform="translate(1386,85) rotate(7.9) scale(0.40)"/>
    <use xlink:href="#chat" transform="translate(1539,88) rotate(-19.8) scale(0.37)"/>
    <use xlink:href="#case" transform="translate(1703,71) rotate(-19.1) scale(0.49)"/>
    <use xlink:href="#cal" transform="translate(1878,83) rotate(-7.6) scale(0.38)"/>
    <use xlink:href="#search" transform="translate(158,197) rotate(18.0) scale(0.40)"/>
    <use xlink:href="#mic" transform="translate(311,201) rotate(15.1) scale(0.47)"/>
    <use xlink:href="#pen" transform="translate(440,202) rotate(-17.5) scale(0.50)"/>
    <use xlink:href="#id" transform="translate(584,239) rotate(12.0) scale(0.52)"/>
    <use xlink:href="#grad" transform="translate(751,200) rotate(-7.6) scale(0.49)"/>
    <use xlink:href="#doc" transform="translate(873,215) rotate(-8.1) scale(0.49)"/>
    <use xlink:href="#chat" transform="translate(1029,211) rotate(1.3) scale(0.40)"/>
    <use xlink:href="#case" transform="translate(1173,227) rotate(-19.2) scale(0.44)"/>
    <use xlink:href="#cal" transform="translate(1326,191) rotate(-5.2) scale(0.36)"/>
    <use xlink:href="#search" transform="translate(1508,233) rotate(13.2) scale(0.35)"/>
    <use xlink:href="#mic" transform="translate(1623,237) rotate(-5.8) scale(0.37)"/>
    <use xlink:href="#pen" transform="translate(1741,196) rotate(1.0) scale(0.43)"/>
    <use xlink:href="#id" transform="translate(1925,206) rotate(-11.1) scale(0.35)"/>
    <use xlink:href="#grad" transform="translate(98,361) rotate(-14.5) scale(0.48)"/>
    <use xlink:href="#doc" transform="translate(230,355) rotate(10.7) scale(0.37)"/>
    <use xlink:href="#chat" transform="translate(342,385) rotate(10.8) scale(0.51)"/>
    <use xlink:href="#case" transform="translate(505,367) rotate(9.9) scale(0.51)"/>
    <use xlink:href="#cal" transform="translate(652,382) rotate(-16.1) scale(0.40)"/>
    <use xlink:href="#search" transform="translate(786,358) rotate(6.5) scale(0.36)"/>
    <use xlink:href="#mic" transform="translate(934,352) rotate(-19.9) scale(0.37)"/>
    <use xlink:href="#pen" transform="translate(1093,387) rotate(-1.6) scale(0.40)"/>
    <use xlink:href="#id" transform="translate(1240,347) rotate(19.0) scale(0.43)"/>
    <use xlink:href="#grad" transform="translate(1429,377) rotate(-2.3) scale(0.36)"/>
    <use xlink:href="#doc" transform="translate(1572,374) rotate(-10.9) scale(0.35)"/>
    <use xlink:href="#chat" transform="translate(1680,358) rotate(17.2) scale(0.47)"/>
    <use xlink:href="#case" transform="translate(1865,376) rotate(6.9) scale(0.47)"/>
    <use xlink:href="#cal" transform="translate(318,496) rotate(0.9) scale(0.48)"/>
    <use xlink:href="#search" transform="translate(419,489) rotate(-0.0) scale(0.43)"/>
    <use xlink:href="#mic" transform="translate(597,508) rotate(13.4) scale(0.45)"/>
    <use xlink:href="#pen" transform="translate(757,526) rotate(10.7) scale(0.50)" color="#0b9a48" opacity="0.32"/>
    <use xlink:href="#id" transform="translate(903,482) rotate(13.9) scale(0.37)"/>
    <use xlink:href="#grad" transform="translate(1004,488) rotate(-8.4) scale(0.50)"/>
    <use xlink:href="#doc" transform="translate(1171,531) rotate(14.8) scale(0.44)"/>
    <use xlink:href="#chat" transform="translate(1343,483) rotate(11.1) scale(0.39)"/>
    <use xlink:href="#case" transform="translate(1457,518) rotate(-8.7) scale(0.45)"/>
    <use xlink:href="#cal" transform="translate(1630,512) rotate(-12.1) scale(0.44)"/>
    <use xlink:href="#search" transform="translate(1781,525) rotate(8.2) scale(0.41)"/>
    <use xlink:href="#mic" transform="translate(1907,507) rotate(5.0) scale(0.42)"/>
    <use xlink:href="#pen" transform="translate(91,659) rotate(-6.6) scale(0.48)"/>
    <use xlink:href="#id" transform="translate(245,665) rotate(4.6) scale(0.39)"/>
    <use xlink:href="#grad" transform="translate(346,634) rotate(0.4) scale(0.46)"/>
    <use xlink:href="#doc" transform="translate(487,658) rotate(-5.5) scale(0.40)"/>
    <use xlink:href="#chat" transform="translate(809,663) rotate(4.6) scale(0.40)"/>
    <use xlink:href="#case" transform="translate(1227,632) rotate(-3.3) scale(0.39)"/>
    <use xlink:href="#cal" transform="translate(1527,629) rotate(16.7) scale(0.43)"/>
    <use xlink:href="#search" transform="translate(1730,633) rotate(-4.8) scale(0.43)"/>
    <use xlink:href="#mic" transform="translate(1841,645) rotate(-1.4) scale(0.52)"/>
    <use xlink:href="#pen" transform="translate(151,817) rotate(13.7) scale(0.42)"/>
    <use xlink:href="#id" transform="translate(446,796) rotate(-6.7) scale(0.43)"/>
    <use xlink:href="#grad" transform="translate(597,772) rotate(11.3) scale(0.46)"/>
    <use xlink:href="#doc" transform="translate(718,818) rotate(10.6) scale(0.35)"/>
    <use xlink:href="#chat" transform="translate(887,814) rotate(8.5) scale(0.42)"/>
    <use xlink:href="#case" transform="translate(1061,785) rotate(-8.7) scale(0.45)"/>
    <use xlink:href="#cal" transform="translate(1189,804) rotate(-4.1) scale(0.50)"/>
    <use xlink:href="#search" transform="translate(1304,799) rotate(-4.7) scale(0.45)"/>
    <use xlink:href="#mic" transform="translate(1455,773) rotate(-13.9) scale(0.44)" color="#0b9a48" opacity="0.32"/>
    <use xlink:href="#pen" transform="translate(1656,785) rotate(-2.9) scale(0.41)"/>
    <use xlink:href="#id" transform="translate(1782,798) rotate(16.9) scale(0.45)"/>
    <use xlink:href="#grad" transform="translate(1924,784) rotate(-16.5) scale(0.34)"/>
    <use xlink:href="#doc" transform="translate(93,920) rotate(-14.5) scale(0.35)"/>
    <use xlink:href="#chat" transform="translate(243,964) rotate(-1.2) scale(0.49)"/>
    <use xlink:href="#case" transform="translate(391,924) rotate(-12.2) scale(0.43)"/>
    <use xlink:href="#cal" transform="translate(694,963) rotate(-17.9) scale(0.43)"/>
    <use xlink:href="#search" transform="translate(786,925) rotate(-11.4) scale(0.41)"/>
    <use xlink:href="#mic" transform="translate(948,928) rotate(-7.6) scale(0.46)"/>
    <use xlink:href="#pen" transform="translate(1104,964) rotate(-6.3) scale(0.48)"/>
    <use xlink:href="#id" transform="translate(1251,916) rotate(12.6) scale(0.51)"/>
    <use xlink:href="#grad" transform="translate(1385,923) rotate(-0.1) scale(0.38)"/>
    <use xlink:href="#doc" transform="translate(1544,947) rotate(10.4) scale(0.41)"/>
    <use xlink:href="#chat" transform="translate(1693,930) rotate(17.4) scale(0.41)"/>
    <use xlink:href="#case" transform="translate(1871,929) rotate(-17.9) scale(0.51)"/>
    <use xlink:href="#cal" transform="translate(132,1078) rotate(13.1) scale(0.43)"/>
    <use xlink:href="#search" transform="translate(409,1095) rotate(16.7) scale(0.44)"/>
    <use xlink:href="#mic" transform="translate(596,1075) rotate(-15.5) scale(0.49)"/>
    <use xlink:href="#pen" transform="translate(749,1065) rotate(-17.5) scale(0.36)"/>
    <use xlink:href="#id" transform="translate(860,1074) rotate(-13.9) scale(0.38)"/>
    <use xlink:href="#grad" transform="translate(1066,1063) rotate(-6.2) scale(0.41)" color="#0b9a48" opacity="0.32"/>
    <use xlink:href="#doc" transform="translate(1153,1089) rotate(8.5) scale(0.41)"/>
    <use xlink:href="#chat" transform="translate(1335,1074) rotate(-11.8) scale(0.42)"/>
    <use xlink:href="#case" transform="translate(1490,1070) rotate(6.4) scale(0.50)"/>
    <use xlink:href="#cal" transform="translate(1772,1072) rotate(6.1) scale(0.46)"/>
    <use xlink:href="#search" transform="translate(1952,1108) rotate(-2.2) scale(0.48)"/>
    <use xlink:href="#mic" transform="translate(60,1232) rotate(0.8) scale(0.48)"/>
    <use xlink:href="#pen" transform="translate(248,1218) rotate(-4.8) scale(0.38)"/>
    <use xlink:href="#id" transform="translate(372,1213) rotate(19.2) scale(0.38)"/>
    <use xlink:href="#grad" transform="translate(550,1243) rotate(-18.4) scale(0.48)"/>
    <use xlink:href="#doc" transform="translate(668,1230) rotate(13.8) scale(0.51)"/>
    <use xlink:href="#chat" transform="translate(826,1219) rotate(-15.0) scale(0.46)"/>
    <use xlink:href="#case" transform="translate(990,1241) rotate(6.2) scale(0.43)"/>
    <use xlink:href="#cal" transform="translate(1128,1229) rotate(13.4) scale(0.48)"/>
    <use xlink:href="#search" transform="translate(1235,1223) rotate(16.2) scale(0.36)"/>
    <use xlink:href="#mic" transform="translate(1382,1238) rotate(12.3) scale(0.44)"/>
    <use xlink:href="#pen" transform="translate(1561,1242) rotate(11.8) scale(0.45)"/>
    <use xlink:href="#id" transform="translate(1874,1229) rotate(-7.6) scale(0.47)"/>
  </g>
</svg>
