<svg xmlns="http://www.w3.org/2000/svg" viewBox="0 0 1920 1500" preserveAspectRatio="xMidYMid slice">
  <defs>
    <linearGradient id="qsky" x1="0" y1="0" x2="0" y2="1">
      <stop offset="0" stop-color="#f3f7f4"/>
      <stop offset="0.5" stop-color="#ebf7f1"/>
      <stop offset="1" stop-color="#f1f6f1"/>
    </linearGradient>
    <radialGradient id="qsun" cx="0.5" cy="0.16" r="0.55">
      <stop offset="0" stop-color="#f2efd6" stop-opacity="0.45"/>
      <stop offset="1" stop-color="#f2efd6" stop-opacity="0"/>
    </radialGradient>
  </defs>
  <rect width="1920" height="1500" fill="url(#qsky)"/>
  <rect width="1920" height="1500" fill="url(#qsun)"/>
  <g fill="#d7e6da" font-family="Georgia, 'Times New Roman', serif" font-weight="700" text-anchor="middle" dominant-baseline="middle">
  <text x="112" y="189" font-size="100" transform="rotate(1.1 112 189)">“</text>
  <text x="1727" y="122" font-size="190" transform="rotate(-1.8 1727 122)">“</text>
  <text x="764" y="537" font-size="113" transform="rotate(8.0 764 537)">”</text>
  <text x="1228" y="585" font-size="167" transform="rotate(3.8 1228 585)">“</text>
  <text x="2002" y="500" font-size="143" transform="rotate(-0.6 2002 500)">”</text>
  <text x="121" y="880" font-size="126" transform="rotate(7.3 121 880)">“</text>
  <text x="488" y="903" font-size="103" transform="rotate(6.4 488 903)">”</text>
  <text x="902" y="876" font-size="133" transform="rotate(2.5 902 876)">“</text>
  <text x="1313" y="962" font-size="96" transform="rotate(9.7 1313 962)">”</text>
  <text x="1753" y="869" font-size="105" transform="rotate(9.3 1753 869)" fill="#0b9a48" opacity="0.14">“</text>
  <text x="372" y="1249" font-size="164" transform="rotate(1.2 372 1249)">“</text>
  <text x="819" y="1257" font-size="193" transform="rotate(-3.7 819 1257)">“</text>
  <text x="1219" y="1381" font-size="98" transform="rotate(-2.2 1219 1381)">“</text>
  <text x="1578" y="1305" font-size="96" transform="rotate(-9.4 1578 1305)">“</text>
  <text x="1957" y="1380" font-size="176" transform="rotate(-0.0 1957 1380)">”</text>
  </g>
</svg>
